<?xml version="1.0" encoding="UTF-8"?>
<svg width="22px" height="22px" viewBox="0 0 22 22" version="1.1" xmlns="http://www.w3.org/2000/svg" xmlns:xlink="http://www.w3.org/1999/xlink">
    <!-- Generator: Sketch 50.2 (55047) - http://www.bohemiancoding.com/sketch -->
    <title>Group 4</title>
    <desc>Created with Sketch.</desc>
    <defs></defs>
    <g id="Symbols" stroke="none" stroke-width="1" fill="none" fill-rule="evenodd">
        <g id="checkbox/normal" fill="#E85E20" fill-rule="nonzero">
            <g id="Group-4">
                <path d="M3,1 C1.8954305,1 1,1.8954305 1,3 L1,19 C1,20.1045695 1.8954305,21 3,21 L19,21 C20.1045695,21 21,20.1045695 21,19 L21,3 C21,1.8954305 20.1045695,1 19,1 L3,1 Z M3,0 L19,0 C20.6568542,-3.04359188e-16 22,1.34314575 22,3 L22,19 C22,20.6568542 20.6568542,22 19,22 L3,22 C1.34314575,22 2.02906125e-16,20.6568542 0,19 L0,3 C-2.02906125e-16,1.34314575 1.34314575,3.04359188e-16 3,0 Z" id="Rectangle-6-Copy"></path>
            </g>
        </g>
    </g>
</svg>