<svg xmlns="http://www.w3.org/2000/svg" width="20" height="20" viewBox="0 0 20 20">
  <g id="Ico-Bus" transform="translate(-4173 -2438)">
    <rect id="Rectangle_144" data-name="Rectangle 144" width="20" height="20" transform="translate(4173 2438)" fill="rgba(235,10,253,0)"/>
    <path id="Subtraction_10" data-name="Subtraction 10" d="M27221.438,10442.76h-10.658a1.782,1.782,0,0,1-1.783-1.776v-11.205a1.782,1.782,0,0,1,1.783-1.776h10.658a1.782,1.782,0,0,1,1.783,1.776v11.205A1.782,1.782,0,0,1,27221.438,10442.76Zm-1.127-4.072a1.155,1.155,0,1,0,1.148,1.155A1.156,1.156,0,0,0,27220.311,10438.688Zm-8.307,0a1.155,1.155,0,1,0,1.154,1.155A1.157,1.157,0,0,0,27212,10438.688Zm-.615-6.921a1,1,0,0,0-1.006,1v4a1,1,0,0,0,1.006,1h9.537a1,1,0,0,0,1-1v-4a1,1,0,0,0-1-1Zm2.459-2.31a.694.694,0,0,0,0,1.388h4.611a.694.694,0,1,0,0-1.388Z" transform="translate(-23033 -7988)" fill="#141e6b"/>
    <g id="Group_171" data-name="Group 171" transform="translate(4175.966 2455.015)">
      <rect id="Rectangle_140" data-name="Rectangle 140" width="4.637" height="1.855" rx="0.927" transform="translate(-1.965 -7.21) rotate(-90)" fill="#141e6b"/>
      <rect id="Rectangle_137" data-name="Rectangle 137" width="4.637" height="1.855" rx="0.927" transform="translate(13.309 -7.21) rotate(-90)" fill="#141e6b"/>
      <rect id="Rectangle_156" data-name="Rectangle 156" width="2.32" height="2.5" rx="0.5" transform="translate(1.537 1.305) rotate(-90)" fill="#141e6b"/>
      <rect id="Rectangle_157" data-name="Rectangle 157" width="2.32" height="2.5" rx="0.5" transform="translate(9.537 1.305) rotate(-90)" fill="#141e6b"/>
    </g>
  </g>
</svg>
